<svg t="1684931976923" class="icon" viewBox="0 0 1024 1024" version="1.1" xmlns="http://www.w3.org/2000/svg" p-id="1286" width="32" height="32"><path d="M966.428444 903.566222L669.582222 606.776889a339.797333 339.797333 0 0 0 70.968889-208.924445 340.764444 340.764444 0 0 0-100.437333-242.403555 340.309333 340.309333 0 0 0-242.403556-100.437333A340.792889 340.792889 0 0 0 155.306667 155.448889a340.138667 340.138667 0 0 0-100.465778 242.403555c0 91.562667 35.783111 177.720889 100.465778 242.403556a340.110222 340.110222 0 0 0 242.403555 100.465778c76.572444 0 149.248-24.917333 208.782222-70.855111l296.817778 296.675555a9.386667 9.386667 0 0 0 13.255111 0l49.834667-49.720889a9.386667 9.386667 0 0 0 0-13.255111zM578.759111 578.901333a254.634667 254.634667 0 0 1-181.020444 74.951111 254.634667 254.634667 0 0 1-181.048889-74.951111 254.634667 254.634667 0 0 1-74.951111-181.048889c0-68.323556 26.624-132.693333 74.951111-181.020444a254.606222 254.606222 0 0 1 181.048889-74.979556c68.323556 0 132.693333 26.510222 181.020444 74.979556a254.634667 254.634667 0 0 1 74.979556 181.020444 254.435556 254.435556 0 0 1-74.979556 181.048889z" p-id="1287"></path></svg>